<?xml version="1.0" encoding="UTF-8" standalone="no"?><svg xmlns="http://www.w3.org/2000/svg" xmlns:xlink="http://www.w3.org/1999/xlink" contentScriptType="application/ecmascript" contentStyleType="text/css" height="684px" preserveAspectRatio="none" style="width:935px;height:684px;background:#FEFEFE;" version="1.1" viewBox="0 0 935 684" width="935px" zoomAndPan="magnify"><defs><filter height="300%" id="fzlu6k9j8imwm" width="300%" x="-1" y="-1"><feGaussianBlur result="blurOut" stdDeviation="2.0"/><feColorMatrix in="blurOut" result="blurOut2" type="matrix" values="0 0 0 0 0 0 0 0 0 0 0 0 0 0 0 0 0 0 .4 0"/><feOffset dx="4.0" dy="4.0" in="blurOut2" result="blurOut3"/><feBlend in="SourceGraphic" in2="blurOut3" mode="normal"/></filter></defs><g><!--MD5=[1f205b7d97d07cfffc967ea45a062477]
cluster Crinit--><polygon fill="#FEFEFE" filter="url(#fzlu6k9j8imwm)" points="118.5,136,128.5,126,558.5,126,558.5,330,548.5,340,118.5,340,118.5,136" style="stroke: #000000; stroke-width: 1.5;"/><line style="stroke: #000000; stroke-width: 1.5;" x1="548.5" x2="557.5" y1="136" y2="127"/><line style="stroke: #000000; stroke-width: 1.5;" x1="118.5" x2="548.5" y1="136" y2="136"/><line style="stroke: #000000; stroke-width: 1.5;" x1="548.5" x2="548.5" y1="136" y2="340"/><text fill="#000000" font-family="sans-serif" font-size="14" font-weight="bold" lengthAdjust="spacingAndGlyphs" textLength="42" x="313.5" y="151.9951">Crinit</text><!--MD5=[b1c03e31e8e4aba3b48288f5fb7baab7]
entity task_data--><rect fill="#FEFECE" filter="url(#fzlu6k9j8imwm)" height="36.2969" style="stroke: #A80036; stroke-width: 1.5;" width="157" x="385" y="166"/><rect fill="#FEFECE" height="5" style="stroke: #A80036; stroke-width: 1.5;" width="10" x="380" y="171"/><rect fill="#FEFECE" height="5" style="stroke: #A80036; stroke-width: 1.5;" width="10" x="380" y="192.2969"/><text fill="#000000" font-family="sans-serif" font-size="14" lengthAdjust="spacingAndGlyphs" textLength="137" x="395" y="188.9951">Task Data Structure</text><!--MD5=[e95d62d4ae304974bf1b2a8d75b6338f]
entity notify_if--><rect fill="#FEFECE" filter="url(#fzlu6k9j8imwm)" height="36.2969" style="stroke: #A80036; stroke-width: 1.5;" width="215" x="135" y="166"/><rect fill="#FEFECE" height="5" style="stroke: #A80036; stroke-width: 1.5;" width="10" x="130" y="171"/><rect fill="#FEFECE" height="5" style="stroke: #A80036; stroke-width: 1.5;" width="10" x="130" y="192.2969"/><text fill="#000000" font-family="sans-serif" font-size="14" lengthAdjust="spacingAndGlyphs" textLength="195" x="145" y="188.9951">Notification/Service Interface</text><!--MD5=[71a1dd951cbd77f13c8931e0aa1f37cc]
entity proc_dispatch--><rect fill="#FEFECE" filter="url(#fzlu6k9j8imwm)" height="36.2969" style="stroke: #A80036; stroke-width: 1.5;" width="155" x="387" y="288"/><rect fill="#FEFECE" height="5" style="stroke: #A80036; stroke-width: 1.5;" width="10" x="382" y="293"/><rect fill="#FEFECE" height="5" style="stroke: #A80036; stroke-width: 1.5;" width="10" x="382" y="314.2969"/><text fill="#000000" font-family="sans-serif" font-size="14" lengthAdjust="spacingAndGlyphs" textLength="135" x="397" y="310.9951">Process Dispatcher</text><!--MD5=[72d6bad1dcb09ed30eb531fdac63773e]
entity config_parser--><rect fill="#FEFECE" filter="url(#fzlu6k9j8imwm)" height="36.2969" style="stroke: #A80036; stroke-width: 1.5;" width="112" x="239.5" y="288"/><rect fill="#FEFECE" height="5" style="stroke: #A80036; stroke-width: 1.5;" width="10" x="234.5" y="293"/><rect fill="#FEFECE" height="5" style="stroke: #A80036; stroke-width: 1.5;" width="10" x="234.5" y="314.2969"/><text fill="#000000" font-family="sans-serif" font-size="14" lengthAdjust="spacingAndGlyphs" textLength="92" x="249.5" y="310.9951">Config Parser</text><!--MD5=[b4a82ef0e67a03c4072f6c2be9006ed8]
entity tasks--><path d="M445.5059,426.9851 C448.9923,420.8839 455.1442,420.9701 459.0315,426.5198 C460.7164,418.8205 467.0907,418.7703 471.943,423.128 C477.3625,417.6509 484.652,417.2754 487.3491,426.0673 C491.6185,418.7988 496.7834,419.4387 500.9435,426.1735 C510.459,430.0143 511.1152,437.4868 502.6156,443.1066 C509.2265,448.6509 506.6169,454.1835 499.8182,457.0345 C497.099,464.68 491.5318,467.1353 485.3497,460.5568 C482.3723,466.8214 478.2176,467.81 472.6683,463.7009 C466.7369,468.2407 462.1573,467.9411 459.1209,460.4429 C454.1255,467.8106 447.1253,465.7555 444.3023,458.2749 C432.9679,457.1353 431.2989,451.4179 436.1493,442.1136 C430.9434,433.2767 436.4718,427.015 445.5059,426.9851 " fill="#FEFECE" style="stroke: #000000; stroke-width: 1.5;"/><text fill="#000000" font-family="sans-serif" font-size="14" lengthAdjust="spacingAndGlyphs" textLength="41" x="451" y="445.9951">Tasks</text><!--MD5=[8f9344b930b3d2ff43aba06ac6141f23]
entity notify_lib--><rect fill="#FEFECE" filter="url(#fzlu6k9j8imwm)" height="36.2969" style="stroke: #A80036; stroke-width: 1.5;" width="196" x="276.5" y="530"/><rect fill="#FEFECE" height="5" style="stroke: #A80036; stroke-width: 1.5;" width="10" x="271.5" y="535"/><rect fill="#FEFECE" height="5" style="stroke: #A80036; stroke-width: 1.5;" width="10" x="271.5" y="556.2969"/><text fill="#000000" font-family="sans-serif" font-size="14" lengthAdjust="spacingAndGlyphs" textLength="176" x="286.5" y="552.9951">Notfication/Service Library</text><!--MD5=[afde436b5f41694cc1cd19daf8c702ae]
entity task_configs--><path d="M243.2263,426.4404 C247.5892,420.2985 251.7296,421.3131 255.5022,427.0505 C259.4516,420.1191 263.5469,420.5204 268.3493,426.1801 C272.0588,420.9542 276.4529,420.0528 280.0807,426.2639 C283.8732,419.402 288.8033,417.7451 294.2819,424.5062 C298.1586,419.2387 301.5554,419.647 305.1356,424.8145 C308.364,417.9784 314.8066,418.074 318.7557,424.0483 C322.5219,418.1821 327.4166,418.3457 330.9723,424.2664 C335.4562,417.9018 340.9517,419.0542 344.843,424.9375 C347.8572,419.3152 353.3947,420.6986 356.0837,425.2952 C360.3238,419.0044 366.6574,420.0691 369.47,426.7664 C372.8871,420.5879 378.7609,421.804 381.61,427.3544 C385.382,420.5241 390.2241,420.8235 394.8489,426.4478 C402.6969,429.8721 404.6494,436.5166 398.2145,442.8683 C404.364,449.1246 400.8766,455.629 393.4623,457.4712 C390.6391,464.2957 385.7422,464.542 380.8613,459.6922 C377.3329,465.2204 372.6148,465.3304 368.5067,460.3754 C366.2504,467.9506 360.3048,467.7035 355.4207,463.2292 C352.2293,469.9815 347.3388,470.1957 343.3281,463.994 C340.3431,469.7726 334.527,471.7367 330.3253,465.2879 C327.9301,471.9957 324.5609,472.4712 319.5147,467.8084 C313.7236,474.8105 309.1987,473.492 305.1104,466.104 C301.0356,471.4307 296.1973,470.4647 293.9651,464.3146 C289.084,469.7063 285.1752,470.2636 281.549,463.0759 C276.0796,469.9099 271.1988,467.7605 267.6256,461.117 C263.2888,466.296 258.8253,465.349 255.623,459.8426 C251.8215,464.2684 246.1708,463.9045 243.7653,458.2073 C233.6704,456.8008 230.2597,451.5286 235.5488,442.2171 C230.5463,434.4795 232.5257,426.5365 243.2263,426.4404 " fill="#FEFECE" style="stroke: #000000; stroke-width: 1.5;"/><text fill="#000000" font-family="sans-serif" font-size="14" lengthAdjust="spacingAndGlyphs" textLength="137" x="249" y="445.9951">Task Configurations</text><!--MD5=[4dd3040d75f2a96f8cfa3519878f2853]
entity elos--><polygon fill="#FEFECE" filter="url(#fzlu6k9j8imwm)" points="75,535,85,525,144,525,144,561.2969,134,571.2969,75,571.2969,75,535" style="stroke: #000000; stroke-width: 1.5;"/><line style="stroke: #000000; stroke-width: 1.5;" x1="134" x2="143" y1="535" y2="526"/><line style="stroke: #000000; stroke-width: 1.5;" x1="75" x2="134" y1="535" y2="535"/><line style="stroke: #000000; stroke-width: 1.5;" x1="134" x2="134" y1="535" y2="571.2969"/><text fill="#000000" font-family="sans-serif" font-size="14" lengthAdjust="spacingAndGlyphs" textLength="29" x="90" y="557.9951">elos</text><path d="M6,8 L6,78.5313 A0,0 0 0 0 6,78.5313 L170.23,78.5313 L231.12,165.68 L178.23,78.5313 L297,78.5313 A0,0 0 0 0 297,78.5313 L297,18 L287,8 L6,8 A0,0 0 0 0 6,8 " fill="#FBFB77" filter="url(#fzlu6k9j8imwm)" style="stroke: #A80036; stroke-width: 1.0;"/><path d="M287,8 L287,18 L297,18 L287,8 " fill="#FBFB77" style="stroke: #A80036; stroke-width: 1.0;"/><text fill="#000000" font-family="sans-serif" font-size="13" lengthAdjust="spacingAndGlyphs" textLength="243" x="12" y="25.0669">Notifies Task Data Structure of events</text><text fill="#000000" font-family="sans-serif" font-size="13" lengthAdjust="spacingAndGlyphs" textLength="209" x="12" y="40.1997">from SD_NOTIFY library and elos.</text><text fill="#000000" font-family="sans-serif" font-size="13" lengthAdjust="spacingAndGlyphs" textLength="270" x="12" y="55.3325">Multi-threaded UNIX domain socket server</text><text fill="#000000" font-family="sans-serif" font-size="13" lengthAdjust="spacingAndGlyphs" textLength="190" x="12" y="70.4653">for Notification/Sevice Library.</text><path d="M331.5,8 L331.5,78.5313 A0,0 0 0 0 331.5,78.5313 L527.77,78.5313 L474.88,165.68 L535.77,78.5313 L777.5,78.5313 A0,0 0 0 0 777.5,78.5313 L777.5,18 L767.5,8 L331.5,8 A0,0 0 0 0 331.5,8 " fill="#FBFB77" filter="url(#fzlu6k9j8imwm)" style="stroke: #A80036; stroke-width: 1.0;"/><path d="M767.5,8 L767.5,18 L777.5,18 L767.5,8 " fill="#FBFB77" style="stroke: #A80036; stroke-width: 1.0;"/><text fill="#000000" font-family="sans-serif" font-size="13" lengthAdjust="spacingAndGlyphs" textLength="413" x="337.5" y="25.0669">"Intelligent" data structure implementing a task database. Keeps</text><text fill="#000000" font-family="sans-serif" font-size="13" lengthAdjust="spacingAndGlyphs" textLength="424" x="337.5" y="40.1997">track of waiting, running, finished tasks and handles state changes</text><text fill="#000000" font-family="sans-serif" font-size="13" lengthAdjust="spacingAndGlyphs" textLength="425" x="337.5" y="55.3325">through events. Will notify process dispatcher upon a state change</text><text fill="#000000" font-family="sans-serif" font-size="13" lengthAdjust="spacingAndGlyphs" textLength="247" x="337.5" y="70.4653">that implies a new task is ready to run.</text><path d="M216,632 L216,672.2656 A0,0 0 0 0 216,672.2656 L533,672.2656 A0,0 0 0 0 533,672.2656 L533,642 L523,632 L378.5,632 L374.5,566.3 L370.5,632 L216,632 A0,0 0 0 0 216,632 " fill="#FBFB77" filter="url(#fzlu6k9j8imwm)" style="stroke: #A80036; stroke-width: 1.0;"/><path d="M523,632 L523,642 L533,642 L523,632 " fill="#FBFB77" style="stroke: #A80036; stroke-width: 1.0;"/><text fill="#000000" font-family="sans-serif" font-size="13" lengthAdjust="spacingAndGlyphs" textLength="293" x="222" y="649.0669">C interface compatible with SD_NOTIFY. Feeds</text><text fill="#000000" font-family="sans-serif" font-size="13" lengthAdjust="spacingAndGlyphs" textLength="296" x="222" y="664.1997">notifications to Task Data Structure as events.</text><path d="M577.5,141 L577.5,226.6641 A0,0 0 0 0 577.5,226.6641 L646.07,226.6641 L505.06,287.98 L654.07,226.6641 L923.5,226.6641 A0,0 0 0 0 923.5,226.6641 L923.5,151 L913.5,141 L577.5,141 A0,0 0 0 0 577.5,141 " fill="#FBFB77" filter="url(#fzlu6k9j8imwm)" style="stroke: #A80036; stroke-width: 1.0;"/><path d="M913.5,141 L913.5,151 L923.5,151 L913.5,141 " fill="#FBFB77" style="stroke: #A80036; stroke-width: 1.0;"/><text fill="#000000" font-family="sans-serif" font-size="13" lengthAdjust="spacingAndGlyphs" textLength="325" x="583.5" y="158.0669">Multi-threaded process spawner. Spawns and waits</text><text fill="#000000" font-family="sans-serif" font-size="13" lengthAdjust="spacingAndGlyphs" textLength="290" x="583.5" y="173.1997">for processes. Notifies Task Data Structure of</text><text fill="#000000" font-family="sans-serif" font-size="13" lengthAdjust="spacingAndGlyphs" textLength="302" x="583.5" y="188.3325">"spawn" and "wait" events.  SafeSystemStartup</text><text fill="#000000" font-family="sans-serif" font-size="13" lengthAdjust="spacingAndGlyphs" textLength="264" x="583.5" y="203.4653">parts will be in here to spawn a jailed task</text><text fill="#000000" font-family="sans-serif" font-size="13" lengthAdjust="spacingAndGlyphs" textLength="125" x="583.5" y="218.5981">according to config.</text><!--MD5=[0d5a05e6bf54432b44fadb92b8b8293e]
link notify_if to notify_lib--><path d="M232.26,206.86 C210.59,256.62 166.05,380.51 216.5,464 C235.52,495.47 270.85,515.6 303.29,528.14 " fill="none" id="notify_if-notify_lib" style="stroke: #A80036; stroke-width: 1.0; stroke-dasharray: 7.0,7.0;"/><polygon fill="#A80036" points="308.05,529.93,301.0275,523.0246,303.3684,528.1744,298.2185,530.5152,308.05,529.93" style="stroke: #A80036; stroke-width: 1.0;"/><polygon fill="#A80036" points="234.28,202.28,226.9906,208.9031,232.2639,206.8555,234.3115,212.1288,234.28,202.28" style="stroke: #A80036; stroke-width: 1.0;"/><text fill="#000000" font-family="sans-serif" font-size="13" lengthAdjust="spacingAndGlyphs" textLength="54" x="195.5" y="369.0669">AF_UNIX</text><text fill="#000000" font-family="sans-serif" font-size="13" lengthAdjust="spacingAndGlyphs" textLength="42" x="201.5" y="384.1997">socket</text><!--MD5=[58c0001eb947bbd28afa21e58ae03709]
link notify_if to elos--><path d="M229.23,206.78 C217.18,227.22 199.51,258.91 187.5,288 C153.7,369.88 127.36,471.71 115.84,519.64 " fill="none" id="notify_if-elos" style="stroke: #A80036; stroke-width: 1.0; stroke-dasharray: 7.0,7.0;"/><polygon fill="#A80036" points="114.64,524.66,120.6117,516.8281,115.7955,519.7954,112.8282,514.9792,114.64,524.66" style="stroke: #A80036; stroke-width: 1.0;"/><polygon fill="#A80036" points="231.86,202.34,223.8218,208.031,229.3043,206.6375,230.6978,212.12,231.86,202.34" style="stroke: #A80036; stroke-width: 1.0;"/><!--MD5=[5888715a8b566780e1edfec5027867cd]
reverse link config_parser to task_configs--><path d="M299.16,329.11 C303.22,353.64 309.73,393 313.8,417.63 " fill="none" id="config_parser&lt;-task_configs" style="stroke: #A80036; stroke-width: 1.0;"/><polygon fill="#A80036" points="298.33,324.12,295.8506,333.6517,299.145,329.0531,303.7436,332.3476,298.33,324.12" style="stroke: #A80036; stroke-width: 1.0;"/><!--MD5=[be8c07a6a23ff1de87ed9f0f92c469af]
link proc_dispatch to tasks--><path d="M465.4,324.12 C466.58,346.48 468.65,385.91 470.05,412.49 " fill="none" id="proc_dispatch-&gt;tasks" style="stroke: #A80036; stroke-width: 1.0;"/><polygon fill="#A80036" points="470.32,417.63,473.8263,408.4264,470.049,412.6374,465.838,408.8601,470.32,417.63" style="stroke: #A80036; stroke-width: 1.0;"/><!--MD5=[a0245fc8d26f7a780c0fcca8477b805f]
link tasks to notify_lib--><path d="M451.17,464.01 C434.33,482.24 410.56,507.97 393.97,525.93 " fill="none" id="tasks-&gt;notify_lib" style="stroke: #A80036; stroke-width: 1.0;"/><polygon fill="#A80036" points="390.33,529.86,399.38,525.9745,393.7273,526.1915,393.5104,520.5388,390.33,529.86" style="stroke: #A80036; stroke-width: 1.0;"/><!--MD5=[0d44d17e9ff4a9aef18185135aa1c84a]
reverse link task_configs to tasks--><path d="M406.26,441 C416.09,441 425.93,441 435.76,441 " fill="none" id="task_configs&lt;-tasks" style="stroke: #A80036; stroke-width: 1.0;"/><polygon fill="#A80036" points="401.12,441,410.12,445,406.12,441,410.12,437,401.12,441" style="stroke: #A80036; stroke-width: 1.0;"/><!--MD5=[a21274e58ee4cd3d92d561e3e3881d5d]
link task_data to proc_dispatch--><path d="M463.69,207.25 C463.86,228.73 464.13,261.08 464.31,282.61 " fill="none" id="task_data-proc_dispatch" style="stroke: #A80036; stroke-width: 1.0;"/><polygon fill="#A80036" points="464.36,287.84,468.2827,278.806,464.3171,282.8402,460.283,278.8746,464.36,287.84" style="stroke: #A80036; stroke-width: 1.0;"/><polygon fill="#A80036" points="463.64,202.19,459.7175,211.2241,463.683,207.1898,467.7172,211.1553,463.64,202.19" style="stroke: #A80036; stroke-width: 1.0;"/><!--MD5=[8105c90c87e2092d630a0a6d92ed6599]
reverse link task_data to notify_if--><path d="M379.75,184 C369.97,184 360.19,184 350.41,184 " fill="none" id="task_data&lt;-notify_if" style="stroke: #A80036; stroke-width: 1.0;"/><polygon fill="#A80036" points="384.87,184,375.87,180,379.87,184,375.87,188,384.87,184" style="stroke: #A80036; stroke-width: 1.0;"/><!--MD5=[ba158caa6c048d52fb5e6c09b77fb367]
link task_data to config_parser--><path d="M435.18,205.23 C404.24,227.33 354.96,262.53 323.96,284.67 " fill="none" id="task_data-config_parser" style="stroke: #A80036; stroke-width: 1.0;"/><polygon fill="#A80036" points="319.53,287.84,329.1812,285.8766,323.6025,284.9392,324.5399,279.3606,319.53,287.84" style="stroke: #A80036; stroke-width: 1.0;"/><polygon fill="#A80036" points="439.43,202.19,429.7867,204.1919,435.3691,205.107,434.4539,210.6893,439.43,202.19" style="stroke: #A80036; stroke-width: 1.0;"/><!--MD5=[5750d27cff453264281359c9aadebaf2]
@startuml
skinparam backgroundColor #FEFEFE
node "Crinit" {
	component "Task Data Structure" as task_data
	component "Notification/Service Interface" as notify_if
	component "Process Dispatcher" as proc_dispatch
	component "Config Parser" as config_parser
}
cloud "Tasks" as tasks
component "Notfication/Service Library" as notify_lib
cloud "Task Configurations" as task_configs
node "elos" as elos

notify_if <-down..-> notify_lib : AF_UNIX\nsocket
notify_if <-..-> elos
task_configs -up-> config_parser
proc_dispatch -right-> tasks
tasks -right-> notify_lib
tasks -left-> task_configs
proc_dispatch <-up-> task_data
notify_if -left-> task_data
config_parser <-up-> task_data

note top of notify_if
    Notifies Task Data Structure of events
    from SD_NOTIFY library and elos.
    Multi-threaded UNIX domain socket server
    for Notification/Sevice Library.
end note

note top of task_data
    "Intelligent" data structure implementing a task database. Keeps
    track of waiting, running, finished tasks and handles state changes
    through events. Will notify process dispatcher upon a state change
    that implies a new task is ready to run.
end note

note bottom of notify_lib
    C interface compatible with SD_NOTIFY. Feeds
    notifications to Task Data Structure as events.
end note

note top of proc_dispatch
    Multi-threaded process spawner. Spawns and waits
    for processes. Notifies Task Data Structure of
    "spawn" and "wait" events.  SafeSystemStartup
    parts will be in here to spawn a jailed task
    according to config.
end note

@enduml

PlantUML version 1.2020.02(Sun Mar 01 10:22:07 GMT 2020)
(GPL source distribution)
Java Runtime: OpenJDK Runtime Environment
JVM: OpenJDK 64-Bit Server VM
Java Version: 11.0.18+10-post-Ubuntu-0ubuntu122.04
Operating System: Linux
Default Encoding: UTF-8
Language: en
Country: US
--></g></svg>