<?xml version="1.0" encoding="us-ascii" standalone="no"?><svg xmlns="http://www.w3.org/2000/svg" xmlns:xlink="http://www.w3.org/1999/xlink" contentStyleType="text/css" height="689px" preserveAspectRatio="none" style="width:1043px;height:689px;background:#FEFEFE;" version="1.1" viewBox="0 0 1043 689" width="1043px" zoomAndPan="magnify"><defs/><g><rect fill="#FEFEFE" height="689" style="stroke:none;stroke-width:1.0;" width="1043" x="0" y="0"/><!--cluster Crinit--><g id="cluster_Crinit"><polygon fill="none" points="227.5,134,237.5,124,706.5,124,706.5,335.5,696.5,345.5,227.5,345.5,227.5,134" style="stroke:#181818;stroke-width:1.0;"/><line style="stroke:#181818;stroke-width:1.0;" x1="696.5" x2="706.5" y1="134" y2="124"/><line style="stroke:#181818;stroke-width:1.0;" x1="227.5" x2="696.5" y1="134" y2="134"/><line style="stroke:#181818;stroke-width:1.0;" x1="696.5" x2="696.5" y1="134" y2="345.5"/><text fill="#000000" font-family="sans-serif" font-size="14" font-weight="bold" lengthAdjust="spacing" textLength="42" x="442" y="149.9951">Crinit</text></g><!--entity task_data--><g id="elem_task_data"><rect fill="#F1F1F1" height="46.2969" rx="2.5" ry="2.5" style="stroke:#181818;stroke-width:0.5;" width="177" x="514" y="164"/><rect fill="#F1F1F1" height="10" style="stroke:#181818;stroke-width:0.5;" width="15" x="671" y="169"/><rect fill="#F1F1F1" height="2" style="stroke:#181818;stroke-width:0.5;" width="4" x="669" y="171"/><rect fill="#F1F1F1" height="2" style="stroke:#181818;stroke-width:0.5;" width="4" x="669" y="175"/><text fill="#000000" font-family="sans-serif" font-size="14" lengthAdjust="spacing" textLength="137" x="529" y="196.9951">Task Data Structure</text></g><!--entity notify_if--><g id="elem_notify_if"><rect fill="#F1F1F1" height="46.2969" rx="2.5" ry="2.5" style="stroke:#181818;stroke-width:0.5;" width="235" x="244" y="164"/><rect fill="#F1F1F1" height="10" style="stroke:#181818;stroke-width:0.5;" width="15" x="459" y="169"/><rect fill="#F1F1F1" height="2" style="stroke:#181818;stroke-width:0.5;" width="4" x="457" y="171"/><rect fill="#F1F1F1" height="2" style="stroke:#181818;stroke-width:0.5;" width="4" x="457" y="175"/><text fill="#000000" font-family="sans-serif" font-size="14" lengthAdjust="spacing" textLength="195" x="259" y="196.9951">Notification/Service Interface</text></g><!--entity proc_dispatch--><g id="elem_proc_dispatch"><rect fill="#F1F1F1" height="46.2969" rx="2.5" ry="2.5" style="stroke:#181818;stroke-width:0.5;" width="175" x="515" y="283.5"/><rect fill="#F1F1F1" height="10" style="stroke:#181818;stroke-width:0.5;" width="15" x="670" y="288.5"/><rect fill="#F1F1F1" height="2" style="stroke:#181818;stroke-width:0.5;" width="4" x="668" y="290.5"/><rect fill="#F1F1F1" height="2" style="stroke:#181818;stroke-width:0.5;" width="4" x="668" y="294.5"/><text fill="#000000" font-family="sans-serif" font-size="14" lengthAdjust="spacing" textLength="135" x="530" y="316.4951">Process Dispatcher</text></g><!--entity config_parser--><g id="elem_config_parser"><rect fill="#F1F1F1" height="46.2969" rx="2.5" ry="2.5" style="stroke:#181818;stroke-width:0.5;" width="132" x="347.5" y="283.5"/><rect fill="#F1F1F1" height="10" style="stroke:#181818;stroke-width:0.5;" width="15" x="459.5" y="288.5"/><rect fill="#F1F1F1" height="2" style="stroke:#181818;stroke-width:0.5;" width="4" x="457.5" y="290.5"/><rect fill="#F1F1F1" height="2" style="stroke:#181818;stroke-width:0.5;" width="4" x="457.5" y="294.5"/><text fill="#000000" font-family="sans-serif" font-size="14" lengthAdjust="spacing" textLength="92" x="362.5" y="316.4951">Config Parser</text></g><!--entity tasks--><g id="elem_tasks"><path d="M559.5059,432.4851 C562.9923,426.3839 569.1442,426.4701 573.0315,432.0198 C574.7164,424.3205 581.0907,424.2703 585.943,428.628 C591.3625,423.1509 598.652,422.7754 601.3491,431.5673 C605.6185,424.2988 610.7834,424.9387 614.9435,431.6735 C624.459,435.5143 625.1152,442.9868 616.6156,448.6066 C623.2265,454.1509 620.6169,459.6835 613.8182,462.5345 C611.099,470.18 605.5318,472.6353 599.3497,466.0568 C596.3723,472.3214 592.2176,473.31 586.6683,469.2009 C580.7369,473.7407 576.1573,473.4411 573.1209,465.9429 C568.1255,473.3106 561.1253,471.2555 558.3023,463.7749 C546.9679,462.6353 545.2989,456.9179 550.1493,447.6136 C544.9434,438.7767 550.4718,432.515 559.5059,432.4851 " fill="#F1F1F1" style="stroke:#181818;stroke-width:0.5;"/><text fill="#000000" font-family="sans-serif" font-size="14" lengthAdjust="spacing" textLength="41" x="565" y="451.4951">Tasks</text></g><!--entity notify_lib--><g id="elem_notify_lib"><rect fill="#F1F1F1" height="46.2969" rx="2.5" ry="2.5" style="stroke:#181818;stroke-width:0.5;" width="119" x="409" y="530.5"/><rect fill="#F1F1F1" height="10" style="stroke:#181818;stroke-width:0.5;" width="15" x="508" y="535.5"/><rect fill="#F1F1F1" height="2" style="stroke:#181818;stroke-width:0.5;" width="4" x="506" y="537.5"/><rect fill="#F1F1F1" height="2" style="stroke:#181818;stroke-width:0.5;" width="4" x="506" y="541.5"/><text fill="#000000" font-family="sans-serif" font-size="14" lengthAdjust="spacing" textLength="79" x="424" y="563.4951">C API library</text></g><!--entity cctl--><g id="elem_cctl"><rect fill="#F1F1F1" height="46.2969" rx="2.5" ry="2.5" style="stroke:#181818;stroke-width:0.5;" width="94" x="421.5" y="637.5"/><rect fill="#F1F1F1" height="10" style="stroke:#181818;stroke-width:0.5;" width="15" x="495.5" y="642.5"/><rect fill="#F1F1F1" height="2" style="stroke:#181818;stroke-width:0.5;" width="4" x="493.5" y="644.5"/><rect fill="#F1F1F1" height="2" style="stroke:#181818;stroke-width:0.5;" width="4" x="493.5" y="648.5"/><text fill="#000000" font-family="sans-serif" font-size="14" lengthAdjust="spacing" textLength="54" x="436.5" y="670.4951">crinit-ctl</text></g><!--entity task_configs--><g id="elem_task_configs"><path d="M357.2263,431.9404 C361.5892,425.7985 365.7296,426.8131 369.5022,432.5505 C373.4516,425.6191 377.5469,426.0204 382.3493,431.6801 C386.0588,426.4542 390.4529,425.5528 394.0807,431.7639 C397.8732,424.902 402.8033,423.2451 408.2819,430.0062 C412.1586,424.7387 415.5554,425.147 419.1356,430.3145 C422.364,423.4784 428.8066,423.574 432.7557,429.5483 C436.5219,423.6821 441.4166,423.8457 444.9723,429.7664 C449.4562,423.4018 454.9517,424.5542 458.843,430.4375 C461.8572,424.8152 467.3947,426.1986 470.0837,430.7952 C474.3238,424.5044 480.6574,425.5691 483.47,432.2664 C486.8871,426.0879 492.7609,427.304 495.61,432.8544 C499.382,426.0241 504.2241,426.3235 508.8489,431.9478 C516.6969,435.3721 518.6494,442.0166 512.2145,448.3683 C518.364,454.6246 514.8766,461.129 507.4623,462.9712 C504.6391,469.7957 499.7422,470.042 494.8613,465.1922 C491.3329,470.7204 486.6148,470.8304 482.5067,465.8754 C480.2504,473.4506 474.3048,473.2035 469.4207,468.7292 C466.2293,475.4815 461.3388,475.6957 457.3281,469.494 C454.3431,475.2726 448.527,477.2367 444.3253,470.7879 C441.9301,477.4957 438.5609,477.9712 433.5147,473.3084 C427.7236,480.3105 423.1987,478.992 419.1104,471.604 C415.0356,476.9307 410.1973,475.9647 407.9651,469.8146 C403.084,475.2063 399.1752,475.7636 395.549,468.5759 C390.0796,475.4099 385.1988,473.2605 381.6256,466.617 C377.2888,471.796 372.8253,470.849 369.623,465.3426 C365.8215,469.7684 360.1708,469.4045 357.7653,463.7073 C347.6704,462.3008 344.2597,457.0286 349.5488,447.7171 C344.5463,439.9795 346.5257,432.0365 357.2263,431.9404 " fill="#F1F1F1" style="stroke:#181818;stroke-width:0.5;"/><text fill="#000000" font-family="sans-serif" font-size="14" lengthAdjust="spacing" textLength="137" x="363" y="451.4951">Task Configurations</text></g><!--entity elos--><g id="elem_elos"><polygon fill="#F1F1F1" points="189,540.5,199,530.5,258,530.5,258,566.7969,248,576.7969,189,576.7969,189,540.5" style="stroke:#181818;stroke-width:0.5;"/><line style="stroke:#181818;stroke-width:0.5;" x1="248" x2="258" y1="540.5" y2="530.5"/><line style="stroke:#181818;stroke-width:0.5;" x1="189" x2="248" y1="540.5" y2="540.5"/><line style="stroke:#181818;stroke-width:0.5;" x1="248" x2="248" y1="540.5" y2="576.7969"/><text fill="#000000" font-family="sans-serif" font-size="14" lengthAdjust="spacing" textLength="29" x="204" y="563.4951">elos</text></g><g id="elem_GMN27"><path d="M6,6 L6,76.5313 A0,0 0 0 0 6,76.5313 L258.21,76.5313 L341.09,163.65 L266.21,76.5313 L455,76.5313 A0,0 0 0 0 455,76.5313 L455,16 L445,6 L6,6 A0,0 0 0 0 6,6 " fill="#FEFFDD" style="stroke:#181818;stroke-width:0.5;"/><path d="M445,6 L445,16 L455,16 L445,6 " fill="#FEFFDD" style="stroke:#181818;stroke-width:0.5;"/><text fill="#000000" font-family="sans-serif" font-size="13" lengthAdjust="spacing" textLength="391" x="12" y="23.0669">Handles queries and requests from the C client API. Performs</text><text fill="#000000" font-family="sans-serif" font-size="13" lengthAdjust="spacing" textLength="394" x="12" y="38.1997">runtime actions as necessary and updates the Task database</text><text fill="#000000" font-family="sans-serif" font-size="13" lengthAdjust="spacing" textLength="428" x="12" y="53.3325">accordingly. Implemented as a multi-threaded UNIX domain socket</text><text fill="#000000" font-family="sans-serif" font-size="13" lengthAdjust="spacing" textLength="318" x="12" y="68.4653">server. Meant to be used through the C client API.</text></g><g id="elem_GMN30"><path d="M490,14 L490,69.3984 A0,0 0 0 0 490,69.3984 L705.17,69.3984 L622.83,163.73 L713.17,69.3984 L977,69.3984 A0,0 0 0 0 977,69.3984 L977,24 L967,14 L490,14 A0,0 0 0 0 490,14 " fill="#FEFFDD" style="stroke:#181818;stroke-width:0.5;"/><path d="M967,14 L967,24 L977,24 L967,14 " fill="#FEFFDD" style="stroke:#181818;stroke-width:0.5;"/><text fill="#000000" font-family="sans-serif" font-size="13" lengthAdjust="spacing" textLength="466" x="496" y="31.0669">Data structure implementing a task database. Keeps track of task states</text><text fill="#000000" font-family="sans-serif" font-size="13" lengthAdjust="spacing" textLength="462" x="496" y="46.1997">and handles state changes. Will prompt process dispatcher upon a state</text><text fill="#000000" font-family="sans-serif" font-size="13" lengthAdjust="spacing" textLength="304" x="496" y="61.3325">change that implies new tasks are ready to run.</text></g><g id="elem_GMN33"><path d="M563,533.5 L563,549.5 L528.07,553.5 L563,557.5 L563,573.7656 A0,0 0 0 0 563,573.7656 L972,573.7656 A0,0 0 0 0 972,573.7656 L972,543.5 L962,533.5 L563,533.5 A0,0 0 0 0 563,533.5 " fill="#FEFFDD" style="stroke:#181818;stroke-width:0.5;"/><path d="M962,533.5 L962,543.5 L972,543.5 L962,533.5 " fill="#FEFFDD" style="stroke:#181818;stroke-width:0.5;"/><text fill="#000000" font-family="sans-serif" font-size="13" lengthAdjust="spacing" textLength="388" x="569" y="550.5669">C client API. Relays info/requests between notification/service</text><text fill="#000000" font-family="sans-serif" font-size="13" lengthAdjust="spacing" textLength="188" x="569" y="565.6997">interface and client programs</text></g><g id="elem_GMN36"><path d="M726.5,151.5 L726.5,222.0313 A0,0 0 0 0 726.5,222.0313 L795.3,222.0313 L655.12,283.34 L803.3,222.0313 L1036.5,222.0313 A0,0 0 0 0 1036.5,222.0313 L1036.5,161.5 L1026.5,151.5 L726.5,151.5 A0,0 0 0 0 726.5,151.5 " fill="#FEFFDD" style="stroke:#181818;stroke-width:0.5;"/><path d="M1026.5,151.5 L1026.5,161.5 L1036.5,161.5 L1026.5,151.5 " fill="#FEFFDD" style="stroke:#181818;stroke-width:0.5;"/><text fill="#000000" font-family="sans-serif" font-size="13" lengthAdjust="spacing" textLength="289" x="732.5" y="168.5669">Multi-threaded process spawner. Spawns and</text><text fill="#000000" font-family="sans-serif" font-size="13" lengthAdjust="spacing" textLength="268" x="732.5" y="183.6997">waits for processes according to task con-</text><text fill="#000000" font-family="sans-serif" font-size="13" lengthAdjust="spacing" textLength="261" x="732.5" y="198.8325">figurations. Updates Task Data Structure</text><text fill="#000000" font-family="sans-serif" font-size="13" lengthAdjust="spacing" textLength="155" x="732.5" y="213.9653">with task state changes.</text></g><g id="elem_GMN39"><path d="M551,648 L551,656.5 L515.78,660.5 L551,664.5 L551,673.1328 A0,0 0 0 0 551,673.1328 L856,673.1328 A0,0 0 0 0 856,673.1328 L856,658 L846,648 L551,648 A0,0 0 0 0 551,648 " fill="#FEFFDD" style="stroke:#181818;stroke-width:0.5;"/><path d="M846,648 L846,658 L856,658 L846,648 " fill="#FEFFDD" style="stroke:#181818;stroke-width:0.5;"/><text fill="#000000" font-family="sans-serif" font-size="13" lengthAdjust="spacing" textLength="284" x="557" y="665.0669">User-space control program using the C API.</text></g><!--link notify_if to notify_lib--><g id="link_notify_if_notify_lib"><path d="M348.71,214.81 C325.62,267.45 283.51,386.41 330.5,469.5 C346.44,497.68 376.19,517.35 404,530.44 " fill="none" id="notify_if-notify_lib" style="stroke:#181818;stroke-width:1.0;stroke-dasharray:7.0,7.0;"/><polygon fill="#181818" points="350.75,210.23,343.4433,216.834,348.722,214.8002,350.7557,220.0789,350.75,210.23" style="stroke:#181818;stroke-width:1.0;"/><polygon fill="#181818" points="408.81,532.65,402.319,525.2428,404.2715,530.552,398.9622,532.5044,408.81,532.65" style="stroke:#181818;stroke-width:1.0;"/><text fill="#000000" font-family="sans-serif" font-size="13" lengthAdjust="spacing" textLength="54" x="311.5" y="374.5669">AF_UNIX</text><text fill="#000000" font-family="sans-serif" font-size="13" lengthAdjust="spacing" textLength="42" x="317.5" y="389.6997">socket</text></g><!--link notify_if to elos--><g id="link_notify_if_elos"><path d="M342.64,214.83 C330.21,233.43 314.3,259.14 303.5,283.5 C265.88,368.33 239.96,475.83 229.15,525.31 " fill="none" id="notify_if-elos" style="stroke:#181818;stroke-width:1.0;stroke-dasharray:7.0,7.0;"/><polygon fill="#181818" points="345.71,210.26,337.3687,215.4966,342.92,214.4092,344.0074,219.9606,345.71,210.26" style="stroke:#181818;stroke-width:1.0;"/><polygon fill="#181818" points="228.09,530.2,233.9029,522.2495,229.1474,525.3131,226.0838,520.5576,228.09,530.2" style="stroke:#181818;stroke-width:1.0;"/></g><!--reverse link config_parser to task_configs--><g id="link_config_parser_task_configs"><path d="M417.05,334.69 C420.43,360.64 425.47,399.26 428.62,423.38 " fill="none" id="config_parser-backto-task_configs" style="stroke:#181818;stroke-width:1.0;"/><polygon fill="#181818" points="416.39,329.67,413.6074,339.1176,417.0471,334.6266,421.538,338.0663,416.39,329.67" style="stroke:#181818;stroke-width:1.0;"/></g><!--link proc_dispatch to tasks--><g id="link_proc_dispatch_tasks"><path d="M599.77,329.67 C596.79,353.81 592.04,392.44 588.84,418.37 " fill="none" id="proc_dispatch-to-tasks" style="stroke:#181818;stroke-width:1.0;"/><polygon fill="#181818" points="588.22,423.38,593.2725,414.9259,588.8208,418.4162,585.3304,413.9646,588.22,423.38" style="stroke:#181818;stroke-width:1.0;"/></g><!--link tasks to notify_lib--><g id="link_tasks_notify_lib"><path d="M560.97,469.51 C542.38,486.2 516.78,509.18 497.22,526.72 " fill="none" id="tasks-to-notify_lib" style="stroke:#181818;stroke-width:1.0;"/><polygon fill="#181818" points="493.4,530.16,502.7713,527.1304,497.1228,526.8223,497.4309,521.1738,493.4,530.16" style="stroke:#181818;stroke-width:1.0;"/></g><!--reverse link task_configs to tasks--><g id="link_task_configs_tasks"><path d="M520.26,446.5 C530.09,446.5 539.93,446.5 549.76,446.5 " fill="none" id="task_configs-backto-tasks" style="stroke:#181818;stroke-width:1.0;"/><polygon fill="#181818" points="515.12,446.5,524.12,450.5,520.12,446.5,524.12,442.5,515.12,446.5" style="stroke:#181818;stroke-width:1.0;"/></g><!--link task_data to proc_dispatch--><g id="link_task_data_proc_dispatch"><path d="M602.5,215.21 C602.5,234.17 602.5,259.37 602.5,278.33 " fill="none" id="task_data-proc_dispatch" style="stroke:#181818;stroke-width:1.0;"/><polygon fill="#181818" points="602.5,210.1,598.5,219.1,602.5,215.1,606.5,219.1,602.5,210.1" style="stroke:#181818;stroke-width:1.0;"/><polygon fill="#181818" points="602.5,283.5,606.5,274.5,602.5,278.5,598.5,274.5,602.5,283.5" style="stroke:#181818;stroke-width:1.0;"/></g><!--reverse link task_data to notify_if--><g id="link_task_data_notify_if"><path d="M508.71,187 C498.87,187 489.02,187 479.18,187 " fill="none" id="task_data-backto-notify_if" style="stroke:#181818;stroke-width:1.0;"/><polygon fill="#181818" points="513.86,187,504.86,183,508.86,187,504.86,191,513.86,187" style="stroke:#181818;stroke-width:1.0;"/></g><!--link task_data to config_parser--><g id="link_task_data_config_parser"><path d="M562.5,212.86 C530.43,232.81 485.62,260.67 453.53,280.61 " fill="none" id="task_data-config_parser" style="stroke:#181818;stroke-width:1.0;"/><polygon fill="#181818" points="566.95,210.1,557.1939,211.4485,562.702,212.7372,561.4134,218.2453,566.95,210.1" style="stroke:#181818;stroke-width:1.0;"/><polygon fill="#181818" points="448.89,283.5,458.6441,282.1368,453.134,280.8564,454.4143,275.3464,448.89,283.5" style="stroke:#181818;stroke-width:1.0;"/></g><!--reverse link notify_lib to cctl--><g id="link_notify_lib_cctl"><path d="M468.5,581.69 C468.5,598.93 468.5,620.94 468.5,637.16 " fill="none" id="notify_lib-backto-cctl" style="stroke:#181818;stroke-width:1.0;"/><polygon fill="#181818" points="468.5,576.51,464.5,585.51,468.5,581.51,472.5,585.51,468.5,576.51" style="stroke:#181818;stroke-width:1.0;"/></g><!--SRC=[TLHHQzim47wUVyMHFTjz7sLGifM5qHBMbUrX41Jvx8Z8aYV93M7il-_kP2SsNLjexVFTf- - - -tJnQ5olWkfWh_In3NvmzTfR7-3z_MV-BPol4LRhO9n9A_XJlDE-wxr3bs3rNSKZV599mLCAWqv3m1Me28dYkvhYY-n7dqnZj4h6kvid32z68snSmj0edGiTfvntfbaKReFN62DyCh5NIHymI79FuLqznXO5Q-yQqy9MXJZcQediUeaKVmjj_L3d1kA5SYpc672ttO0r-w32UKwEGlCyBSgKEjby43tCqI5p6OAqVJrhbnd5KL-qFd_ZXwAuw02tPUrFhghAZxFpuGFStU-U7pS_VxdezH7JeaAo1MX-4fH3J_6b4WiDeGocFIHAoch8tsjmrl_unM8pPL_wMIBUvaElXhZoN5JBjmMrDqkv_zkop4fp427v7dmpSm_GpnVbQeiHVWyO3FsdLmX8Rp55Q8Bl81qGrg2juK7Ij2lOaXTzwA80XC4bqo4eBQCJ2o0RaGmXQ4DFl0YPSMJMJ7El8agvqjg7shZMdYlOTBt5Zix1cd4KT8DDfao7WAgc6CyIQjyfus2SA6EG3YyOAdX0HHIJXpt242cV2ltG7bwtK20HOr6MqbnLP5Yvid6wic0cSaIMgALvAnLyHUofnq3xOKAYMcuyjqdd7KQf9GoQNbkC5Vmmrl8jxVeabvNlS7svmoIVTw1oaK3bGkf99U74KtDuocu4HKnPhJFhGBDvrQhuTEO3DYh3BaVy3QqwHp2kyJSNE-mndH1ThfnMLCmhIZ3CjAQatn6FUcffTSOtD5_k9qPvM0vzqeGoJex7_CGFubH9Fod3LgLbF6QoYoTNiGeo2xerfQJFram5pwCt_xEYCxP9XzaiBqDxKrIvRbpvJBgKH9cqeADJy7OIWgmfnCIJ2pF-0m00]--></g></svg>