<?xml version="1.0" encoding="UTF-8" standalone="no"?><svg xmlns="http://www.w3.org/2000/svg" xmlns:xlink="http://www.w3.org/1999/xlink" contentScriptType="application/ecmascript" contentStyleType="text/css" height="672px" preserveAspectRatio="none" style="width:1003px;height:672px;background:#FEFEFE;" version="1.1" viewBox="0 0 1003 672" width="1003px" zoomAndPan="magnify"><defs><filter height="300%" id="f1ckuyz51d1h7b" width="300%" x="-1" y="-1"><feGaussianBlur result="blurOut" stdDeviation="2.0"/><feColorMatrix in="blurOut" result="blurOut2" type="matrix" values="0 0 0 0 0 0 0 0 0 0 0 0 0 0 0 0 0 0 .4 0"/><feOffset dx="4.0" dy="4.0" in="blurOut2" result="blurOut3"/><feBlend in="SourceGraphic" in2="blurOut3" mode="normal"/></filter></defs><g><!--MD5=[1f205b7d97d07cfffc967ea45a062477]
cluster Crinit--><polygon fill="#FEFEFE" filter="url(#f1ckuyz51d1h7b)" points="247.5,136.5,257.5,126.5,687.5,126.5,687.5,323,677.5,333,247.5,333,247.5,136.5" style="stroke: #000000; stroke-width: 1.5;"/><line style="stroke: #000000; stroke-width: 1.5;" x1="677.5" x2="686.5" y1="136.5" y2="127.5"/><line style="stroke: #000000; stroke-width: 1.5;" x1="247.5" x2="677.5" y1="136.5" y2="136.5"/><line style="stroke: #000000; stroke-width: 1.5;" x1="677.5" x2="677.5" y1="136.5" y2="333"/><text fill="#000000" font-family="sans-serif" font-size="14" font-weight="bold" lengthAdjust="spacingAndGlyphs" textLength="42" x="442.5" y="152.4951">Crinit</text><!--MD5=[b1c03e31e8e4aba3b48288f5fb7baab7]
entity task_data--><rect fill="#FEFECE" filter="url(#f1ckuyz51d1h7b)" height="36.2969" style="stroke: #A80036; stroke-width: 1.5;" width="157" x="514" y="166.5"/><rect fill="#FEFECE" height="5" style="stroke: #A80036; stroke-width: 1.5;" width="10" x="509" y="171.5"/><rect fill="#FEFECE" height="5" style="stroke: #A80036; stroke-width: 1.5;" width="10" x="509" y="192.7969"/><text fill="#000000" font-family="sans-serif" font-size="14" lengthAdjust="spacingAndGlyphs" textLength="137" x="524" y="189.4951">Task Data Structure</text><!--MD5=[e95d62d4ae304974bf1b2a8d75b6338f]
entity notify_if--><rect fill="#FEFECE" filter="url(#f1ckuyz51d1h7b)" height="36.2969" style="stroke: #A80036; stroke-width: 1.5;" width="215" x="264" y="166.5"/><rect fill="#FEFECE" height="5" style="stroke: #A80036; stroke-width: 1.5;" width="10" x="259" y="171.5"/><rect fill="#FEFECE" height="5" style="stroke: #A80036; stroke-width: 1.5;" width="10" x="259" y="192.7969"/><text fill="#000000" font-family="sans-serif" font-size="14" lengthAdjust="spacingAndGlyphs" textLength="195" x="274" y="189.4951">Notification/Service Interface</text><!--MD5=[71a1dd951cbd77f13c8931e0aa1f37cc]
entity proc_dispatch--><rect fill="#FEFECE" filter="url(#f1ckuyz51d1h7b)" height="36.2969" style="stroke: #A80036; stroke-width: 1.5;" width="155" x="516" y="281"/><rect fill="#FEFECE" height="5" style="stroke: #A80036; stroke-width: 1.5;" width="10" x="511" y="286"/><rect fill="#FEFECE" height="5" style="stroke: #A80036; stroke-width: 1.5;" width="10" x="511" y="307.2969"/><text fill="#000000" font-family="sans-serif" font-size="14" lengthAdjust="spacingAndGlyphs" textLength="135" x="526" y="303.9951">Process Dispatcher</text><!--MD5=[72d6bad1dcb09ed30eb531fdac63773e]
entity config_parser--><rect fill="#FEFECE" filter="url(#f1ckuyz51d1h7b)" height="36.2969" style="stroke: #A80036; stroke-width: 1.5;" width="112" x="368.5" y="281"/><rect fill="#FEFECE" height="5" style="stroke: #A80036; stroke-width: 1.5;" width="10" x="363.5" y="286"/><rect fill="#FEFECE" height="5" style="stroke: #A80036; stroke-width: 1.5;" width="10" x="363.5" y="307.2969"/><text fill="#000000" font-family="sans-serif" font-size="14" lengthAdjust="spacingAndGlyphs" textLength="92" x="378.5" y="303.9951">Config Parser</text><!--MD5=[b4a82ef0e67a03c4072f6c2be9006ed8]
entity tasks--><path d="M574.5059,419.9851 C577.9923,413.8839 584.1442,413.9701 588.0315,419.5198 C589.7164,411.8205 596.0907,411.7703 600.943,416.128 C606.3625,410.6509 613.652,410.2754 616.3491,419.0673 C620.6185,411.7988 625.7834,412.4387 629.9435,419.1735 C639.459,423.0143 640.1152,430.4868 631.6156,436.1066 C638.2265,441.6509 635.6169,447.1835 628.8182,450.0345 C626.099,457.68 620.5318,460.1353 614.3497,453.5568 C611.3723,459.8214 607.2176,460.81 601.6683,456.7009 C595.7369,461.2407 591.1573,460.9411 588.1209,453.4429 C583.1255,460.8106 576.1253,458.7555 573.3023,451.2749 C561.9679,450.1353 560.2989,444.4179 565.1493,435.1136 C559.9434,426.2767 565.4718,420.015 574.5059,419.9851 " fill="#FEFECE" style="stroke: #000000; stroke-width: 1.5;"/><text fill="#000000" font-family="sans-serif" font-size="14" lengthAdjust="spacingAndGlyphs" textLength="41" x="580" y="438.9951">Tasks</text><!--MD5=[8f9344b930b3d2ff43aba06ac6141f23]
entity notify_lib--><rect fill="#FEFECE" filter="url(#f1ckuyz51d1h7b)" height="36.2969" style="stroke: #A80036; stroke-width: 1.5;" width="99" x="429" y="523"/><rect fill="#FEFECE" height="5" style="stroke: #A80036; stroke-width: 1.5;" width="10" x="424" y="528"/><rect fill="#FEFECE" height="5" style="stroke: #A80036; stroke-width: 1.5;" width="10" x="424" y="549.2969"/><text fill="#000000" font-family="sans-serif" font-size="14" lengthAdjust="spacingAndGlyphs" textLength="79" x="439" y="545.9951">C API library</text><!--MD5=[00e1e192f7178daf8216a9eba09f80d8]
entity cctl--><rect fill="#FEFECE" filter="url(#f1ckuyz51d1h7b)" height="36.2969" style="stroke: #A80036; stroke-width: 1.5;" width="74" x="441.5" y="625"/><rect fill="#FEFECE" height="5" style="stroke: #A80036; stroke-width: 1.5;" width="10" x="436.5" y="630"/><rect fill="#FEFECE" height="5" style="stroke: #A80036; stroke-width: 1.5;" width="10" x="436.5" y="651.2969"/><text fill="#000000" font-family="sans-serif" font-size="14" lengthAdjust="spacingAndGlyphs" textLength="54" x="451.5" y="647.9951">crinit-ctl</text><!--MD5=[afde436b5f41694cc1cd19daf8c702ae]
entity task_configs--><path d="M372.2263,419.4404 C376.5892,413.2985 380.7296,414.3131 384.5022,420.0505 C388.4516,413.1191 392.5469,413.5204 397.3493,419.1801 C401.0588,413.9542 405.4529,413.0528 409.0807,419.2639 C412.8732,412.402 417.8033,410.7451 423.2819,417.5062 C427.1586,412.2387 430.5554,412.647 434.1356,417.8145 C437.364,410.9784 443.8066,411.074 447.7557,417.0483 C451.5219,411.1821 456.4166,411.3457 459.9723,417.2664 C464.4562,410.9018 469.9517,412.0542 473.843,417.9375 C476.8572,412.3152 482.3947,413.6986 485.0837,418.2952 C489.3238,412.0044 495.6574,413.0691 498.47,419.7664 C501.8871,413.5879 507.7609,414.804 510.61,420.3544 C514.382,413.5241 519.2241,413.8235 523.8489,419.4478 C531.6969,422.8721 533.6494,429.5166 527.2145,435.8683 C533.364,442.1246 529.8766,448.629 522.4623,450.4712 C519.6391,457.2957 514.7422,457.542 509.8613,452.6922 C506.3329,458.2204 501.6148,458.3304 497.5067,453.3754 C495.2504,460.9506 489.3048,460.7035 484.4207,456.2292 C481.2293,462.9815 476.3388,463.1957 472.3281,456.994 C469.3431,462.7726 463.527,464.7367 459.3253,458.2879 C456.9301,464.9957 453.5609,465.4712 448.5147,460.8084 C442.7236,467.8105 438.1987,466.492 434.1104,459.104 C430.0356,464.4307 425.1973,463.4647 422.9651,457.3146 C418.084,462.7063 414.1752,463.2636 410.549,456.0759 C405.0796,462.9099 400.1988,460.7605 396.6256,454.117 C392.2888,459.296 387.8253,458.349 384.623,452.8426 C380.8215,457.2684 375.1708,456.9045 372.7653,451.2073 C362.6704,449.8008 359.2597,444.5286 364.5488,435.2171 C359.5463,427.4795 361.5257,419.5365 372.2263,419.4404 " fill="#FEFECE" style="stroke: #000000; stroke-width: 1.5;"/><text fill="#000000" font-family="sans-serif" font-size="14" lengthAdjust="spacingAndGlyphs" textLength="137" x="378" y="438.9951">Task Configurations</text><!--MD5=[4dd3040d75f2a96f8cfa3519878f2853]
entity elos--><polygon fill="#FEFECE" filter="url(#f1ckuyz51d1h7b)" points="204,528,214,518,273,518,273,554.2969,263,564.2969,204,564.2969,204,528" style="stroke: #000000; stroke-width: 1.5;"/><line style="stroke: #000000; stroke-width: 1.5;" x1="263" x2="272" y1="528" y2="519"/><line style="stroke: #000000; stroke-width: 1.5;" x1="204" x2="263" y1="528" y2="528"/><line style="stroke: #000000; stroke-width: 1.5;" x1="263" x2="263" y1="528" y2="564.2969"/><text fill="#000000" font-family="sans-serif" font-size="14" lengthAdjust="spacingAndGlyphs" textLength="29" x="219" y="550.9951">elos</text><path d="M6,8.5 L6,79.0313 A0,0 0 0 0 6,79.0313 L261.72,79.0313 L353.87,166.18 L269.72,79.0313 L455,79.0313 A0,0 0 0 0 455,79.0313 L455,18.5 L445,8.5 L6,8.5 A0,0 0 0 0 6,8.5 " fill="#FBFB77" filter="url(#f1ckuyz51d1h7b)" style="stroke: #A80036; stroke-width: 1.0;"/><path d="M445,8.5 L445,18.5 L455,18.5 L445,8.5 " fill="#FBFB77" style="stroke: #A80036; stroke-width: 1.0;"/><text fill="#000000" font-family="sans-serif" font-size="13" lengthAdjust="spacingAndGlyphs" textLength="391" x="12" y="25.5669">Handles queries and requests from the C client API. Performs</text><text fill="#000000" font-family="sans-serif" font-size="13" lengthAdjust="spacingAndGlyphs" textLength="392" x="12" y="40.6997">runtime actions as necessary and updates the task database</text><text fill="#000000" font-family="sans-serif" font-size="13" lengthAdjust="spacingAndGlyphs" textLength="428" x="12" y="55.8325">accordingly. Implemented as a multi-threaded UNIX domain socket</text><text fill="#000000" font-family="sans-serif" font-size="13" lengthAdjust="spacingAndGlyphs" textLength="318" x="12" y="70.9653">server. Meant to be used through the C client API.</text><path d="M490,16.5 L490,71.8984 A0,0 0 0 0 490,71.8984 L702.31,71.8984 L609.82,166.48 L710.31,71.8984 L977,71.8984 A0,0 0 0 0 977,71.8984 L977,26.5 L967,16.5 L490,16.5 A0,0 0 0 0 490,16.5 " fill="#FBFB77" filter="url(#f1ckuyz51d1h7b)" style="stroke: #A80036; stroke-width: 1.0;"/><path d="M967,16.5 L967,26.5 L977,26.5 L967,16.5 " fill="#FBFB77" style="stroke: #A80036; stroke-width: 1.0;"/><text fill="#000000" font-family="sans-serif" font-size="13" lengthAdjust="spacingAndGlyphs" textLength="466" x="496" y="33.5669">Data structure implementing a task database. Keeps track of task states</text><text fill="#000000" font-family="sans-serif" font-size="13" lengthAdjust="spacingAndGlyphs" textLength="462" x="496" y="48.6997">and handles state changes. Will prompt process dispatcher upon a state</text><text fill="#000000" font-family="sans-serif" font-size="13" lengthAdjust="spacingAndGlyphs" textLength="304" x="496" y="63.8325">change that implies new tasks are ready to run.</text><path d="M563,521 L563,537 L528.17,541 L563,545 L563,561.2656 A0,0 0 0 0 563,561.2656 L972,561.2656 A0,0 0 0 0 972,561.2656 L972,531 L962,521 L563,521 A0,0 0 0 0 563,521 " fill="#FBFB77" filter="url(#f1ckuyz51d1h7b)" style="stroke: #A80036; stroke-width: 1.0;"/><path d="M962,521 L962,531 L972,531 L962,521 " fill="#FBFB77" style="stroke: #A80036; stroke-width: 1.0;"/><text fill="#000000" font-family="sans-serif" font-size="13" lengthAdjust="spacingAndGlyphs" textLength="388" x="569" y="538.0669">C client API. Relays info/requests between notification/service</text><text fill="#000000" font-family="sans-serif" font-size="13" lengthAdjust="spacingAndGlyphs" textLength="188" x="569" y="553.1997">interface and client programs</text><path d="M706,149 L706,219.5313 A0,0 0 0 0 706,219.5313 L766.26,219.5313 L632.08,280.98 L774.26,219.5313 L991,219.5313 A0,0 0 0 0 991,219.5313 L991,159 L981,149 L706,149 A0,0 0 0 0 706,149 " fill="#FBFB77" filter="url(#f1ckuyz51d1h7b)" style="stroke: #A80036; stroke-width: 1.0;"/><path d="M981,149 L981,159 L991,159 L981,149 " fill="#FBFB77" style="stroke: #A80036; stroke-width: 1.0;"/><text fill="#000000" font-family="sans-serif" font-size="13" lengthAdjust="spacingAndGlyphs" textLength="261" x="712" y="166.0669">Multi-threaded process spawner. Spawns</text><text fill="#000000" font-family="sans-serif" font-size="13" lengthAdjust="spacingAndGlyphs" textLength="264" x="712" y="181.1997">and waits for processes according to task</text><text fill="#000000" font-family="sans-serif" font-size="13" lengthAdjust="spacingAndGlyphs" textLength="257" x="712" y="196.3325">configurations. Updates task data struc-</text><text fill="#000000" font-family="sans-serif" font-size="13" lengthAdjust="spacingAndGlyphs" textLength="185" x="712" y="211.4653">ture with task state changes.</text><path d="M551,630.5 L551,639 L515.85,643 L551,647 L551,655.6328 A0,0 0 0 0 551,655.6328 L856,655.6328 A0,0 0 0 0 856,655.6328 L856,640.5 L846,630.5 L551,630.5 A0,0 0 0 0 551,630.5 " fill="#FBFB77" filter="url(#f1ckuyz51d1h7b)" style="stroke: #A80036; stroke-width: 1.0;"/><path d="M846,630.5 L846,640.5 L856,640.5 L846,630.5 " fill="#FBFB77" style="stroke: #A80036; stroke-width: 1.0;"/><text fill="#000000" font-family="sans-serif" font-size="13" lengthAdjust="spacingAndGlyphs" textLength="284" x="557" y="647.5669">User-space control program using the C API.</text><!--MD5=[0d5a05e6bf54432b44fadb92b8b8293e]
link notify_if to notify_lib--><path d="M361.46,207.51 C340.92,256.06 299.76,374.53 345.5,457 C362.29,487.27 395.23,507.95 424.13,521.1 " fill="none" id="notify_if-notify_lib" style="stroke: #A80036; stroke-width: 1.0; stroke-dasharray: 7.0,7.0;"/><polygon fill="#A80036" points="428.73,523.15,422.1345,515.8357,424.1621,521.1167,418.8811,523.1443,428.73,523.15" style="stroke: #A80036; stroke-width: 1.0;"/><polygon fill="#A80036" points="363.5,202.76,356.2706,209.4485,361.5252,207.3535,363.6202,212.6081,363.5,202.76" style="stroke: #A80036; stroke-width: 1.0;"/><text fill="#000000" font-family="sans-serif" font-size="13" lengthAdjust="spacingAndGlyphs" textLength="54" x="326.5" y="362.0669">AF_UNIX</text><text fill="#000000" font-family="sans-serif" font-size="13" lengthAdjust="spacingAndGlyphs" textLength="42" x="332.5" y="377.1997">socket</text><!--MD5=[58c0001eb947bbd28afa21e58ae03709]
link notify_if to elos--><path d="M357.78,207.16 C346.19,226.1 329.75,254.63 318.5,281 C283.59,362.86 256.6,465.11 244.88,512.96 " fill="none" id="notify_if-elos" style="stroke: #A80036; stroke-width: 1.0; stroke-dasharray: 7.0,7.0;"/><polygon fill="#A80036" points="243.66,517.97,249.6803,510.1754,244.8458,513.1126,241.9085,508.2781,243.66,517.97" style="stroke: #A80036; stroke-width: 1.0;"/><polygon fill="#A80036" points="360.61,202.55,352.4782,208.1064,357.9831,206.8044,359.2852,212.3093,360.61,202.55" style="stroke: #A80036; stroke-width: 1.0;"/><!--MD5=[5888715a8b566780e1edfec5027867cd]
reverse link config_parser to task_configs--><path d="M428.16,322.11 C432.22,346.64 438.73,386 442.8,410.63 " fill="none" id="config_parser&lt;-task_configs" style="stroke: #A80036; stroke-width: 1.0;"/><polygon fill="#A80036" points="427.33,317.12,424.8506,326.6517,428.145,322.0531,432.7436,325.3476,427.33,317.12" style="stroke: #A80036; stroke-width: 1.0;"/><!--MD5=[be8c07a6a23ff1de87ed9f0f92c469af]
link proc_dispatch to tasks--><path d="M594.4,317.12 C595.58,339.48 597.65,378.91 599.05,405.49 " fill="none" id="proc_dispatch-&gt;tasks" style="stroke: #A80036; stroke-width: 1.0;"/><polygon fill="#A80036" points="599.32,410.63,602.8263,401.4264,599.049,405.6374,594.838,401.8601,599.32,410.63" style="stroke: #A80036; stroke-width: 1.0;"/><!--MD5=[a0245fc8d26f7a780c0fcca8477b805f]
link tasks to notify_lib--><path d="M574.92,457.01 C553.57,475.39 523.35,501.4 502.46,519.38 " fill="none" id="tasks-&gt;notify_lib" style="stroke: #A80036; stroke-width: 1.0;"/><polygon fill="#A80036" points="498.41,522.86,507.8465,520.0399,502.2063,519.606,502.6401,513.9659,498.41,522.86" style="stroke: #A80036; stroke-width: 1.0;"/><!--MD5=[0d44d17e9ff4a9aef18185135aa1c84a]
reverse link task_configs to tasks--><path d="M535.26,434 C545.09,434 554.93,434 564.76,434 " fill="none" id="task_configs&lt;-tasks" style="stroke: #A80036; stroke-width: 1.0;"/><polygon fill="#A80036" points="530.12,434,539.12,438,535.12,434,539.12,430,530.12,434" style="stroke: #A80036; stroke-width: 1.0;"/><!--MD5=[a21274e58ee4cd3d92d561e3e3881d5d]
link task_data to proc_dispatch--><path d="M592.7,207.8 C592.87,227.48 593.13,256.02 593.3,275.7 " fill="none" id="task_data-proc_dispatch" style="stroke: #A80036; stroke-width: 1.0;"/><polygon fill="#A80036" points="593.35,280.75,597.2727,271.716,593.3071,275.7502,589.273,271.7846,593.35,280.75" style="stroke: #A80036; stroke-width: 1.0;"/><polygon fill="#A80036" points="592.65,202.59,588.7273,211.624,592.6929,207.5898,596.727,211.5554,592.65,202.59" style="stroke: #A80036; stroke-width: 1.0;"/><!--MD5=[8105c90c87e2092d630a0a6d92ed6599]
reverse link task_data to notify_if--><path d="M508.75,184.5 C498.97,184.5 489.19,184.5 479.41,184.5 " fill="none" id="task_data&lt;-notify_if" style="stroke: #A80036; stroke-width: 1.0;"/><polygon fill="#A80036" points="513.87,184.5,504.87,180.5,508.87,184.5,504.87,188.5,513.87,184.5" style="stroke: #A80036; stroke-width: 1.0;"/><!--MD5=[ba158caa6c048d52fb5e6c09b77fb367]
link task_data to config_parser--><path d="M562.78,205.4 C532.25,225.85 484.96,257.51 454.37,278 " fill="none" id="task_data-config_parser" style="stroke: #A80036; stroke-width: 1.0;"/><polygon fill="#A80036" points="449.98,280.94,459.6833,279.2528,454.1337,278.1566,455.2299,272.607,449.98,280.94" style="stroke: #A80036; stroke-width: 1.0;"/><polygon fill="#A80036" points="566.98,202.59,557.2727,204.2541,562.8197,205.3635,561.7103,210.9105,566.98,202.59" style="stroke: #A80036; stroke-width: 1.0;"/><!--MD5=[8d4aec246e8586b37e98ec8e43e831e2]
reverse link notify_lib to cctl--><path d="M478.5,564.84 C478.5,583.07 478.5,608.22 478.5,624.78 " fill="none" id="notify_lib&lt;-cctl" style="stroke: #A80036; stroke-width: 1.0;"/><polygon fill="#A80036" points="478.5,559.42,474.5,568.42,478.5,564.42,482.5,568.42,478.5,559.42" style="stroke: #A80036; stroke-width: 1.0;"/><!--MD5=[927e714fb571d422d147ac35a6772c94]
@startuml
skinparam backgroundColor #FEFEFE
node "Crinit" {
	component "Task Data Structure" as task_data
	component "Notification/Service Interface" as notify_if
	component "Process Dispatcher" as proc_dispatch
	component "Config Parser" as config_parser
}
cloud "Tasks" as tasks
component "C API library" as notify_lib
component "crinit-ctl" as cctl
cloud "Task Configurations" as task_configs
node "elos" as elos

notify_if <-down..-> notify_lib : AF_UNIX\nsocket
notify_if <-..-> elos
task_configs -up-> config_parser
proc_dispatch -right-> tasks
tasks -right-> notify_lib
tasks -left-> task_configs
proc_dispatch <-up-> task_data
notify_if -left-> task_data
config_parser <-up-> task_data
notify_lib <- - cctl

note top of notify_if
    Handles queries and requests from the C client API. Performs
    runtime actions as necessary and updates the task database
    accordingly. Implemented as a multi-threaded UNIX domain socket
    server. Meant to be used through the C client API.
end note

note top of task_data
    Data structure implementing a task database. Keeps track of task states
    and handles state changes. Will prompt process dispatcher upon a state
    change that implies new tasks are ready to run.
end note

note right of notify_lib
    C client API. Relays info/requests between notification/service
    interface and client programs
end note

note top of proc_dispatch
    Multi-threaded process spawner. Spawns
    and waits for processes according to task
    configurations. Updates task data struc-
    ture with task state changes.
end note

note right of cctl
    User-space control program using the C API.
end note
@enduml

PlantUML version 1.2020.02(Sun Mar 01 10:22:07 UTC 2020)
(GPL source distribution)
Java Runtime: OpenJDK Runtime Environment
JVM: OpenJDK 64-Bit Server VM
Java Version: 21.0.10+7-Ubuntu-124.04
Operating System: Linux
Default Encoding: UTF-8
Language: en
Country: US
--></g></svg>