<?xml version="1.0" encoding="UTF-8" standalone="no"?>
<!-- Creator: CorelDRAW -->

<svg
   xml:space="preserve"
   width="85.570297mm"
   height="75.263084mm"
   style="clip-rule:evenodd;fill-rule:evenodd;image-rendering:optimizeQuality;shape-rendering:geometricPrecision;text-rendering:geometricPrecision"
   viewBox="0 0 85.570297 75.263084"
   version="1.1"
   id="svg12"
   xmlns="http://www.w3.org/2000/svg"
   xmlns:svg="http://www.w3.org/2000/svg">
 <defs
   id="defs4">
  <style
   type="text/css"
   id="style2">
   <![CDATA[
    .fil0 {fill:#1F1A17}
   ]]>
  </style>
 </defs>
 <g
   id="Layer_x0020_1"
   transform="translate(-29.1233,-155.01832)">
  <metadata
   id="CorelCorpID_0Corel-Layer" />
  <path
   class="fil0"
   d="m 45.082,184.017 c -0.1935,1.3486 0.0323,2.6489 0.1276,3.1453 -15.4267,1.9511 -13.933,5.5279 -14.4844,7.0834 -0.7381,0.8094 -1.3967,1.3314 -1.6019,2.3175 0.5224,0.1358 1.4443,0.2332 1.7006,0.2117 1.123,0.1542 3.3604,1.8728 4.8903,2.1961 -0.4445,1.7246 -0.957,4.0857 0.465,5.605 3.0452,14.5242 11.305,23.6844 19.835,25.7054 -1.3852,-4.9497 -2.791,-7.9491 -2.1823,-15.6344 0.9033,-11.404 -0.1753,-8.7655 9.4799,-8.7655 6.4995,0.1098 13.0665,0.0508 19.7009,-0.6832 3.8681,0.3032 7.909,1.0053 11.8068,1.7606 5.8161,1.1271 11.3331,1.86 15.6074,1.9929 -4.4186,-1.0074 -7.961,-2.0487 -11.5707,-3.3598 0.1038,-0.4992 0.2076,-1.1335 0.3116,-1.6328 6.613,0.4176 11.0019,0.7677 15.5258,0.3753 -6.8331,-0.831 -21.1397,-2.7543 -26.1776,-5.4385 -7.2432,-3.9314 -16.1643,-4.2273 -17.9677,-12.3027 -2.2205,-9.9428 0.597,-11.2295 8.0385,-17.8154 2.4449,-2.1638 14.9624,-12.0945 20.2562,-13.6074 -13.6108,-1.8783 -50.295,13.9689 -53.761,28.8465 z m 1.785,-0.2411 c -0.0951,1.2064 0.6678,3.0634 1.4784,3.7488 -14.0376,2.0202 -17.1176,3.8852 -16.6117,6.582 -0.6403,0.702 -1.4307,1.0822 -1.6087,1.9376 0.4532,0.1178 1.9817,0.3114 2.204,0.2928 1.0834,0.9345 3.4612,2.025 4.934,1.5775 -0.6261,1.7639 -2.3144,3.8253 0.3233,6.7893 2.7875,13.2557 10.1071,22.4113 17.5419,24.5296 -2.8592,-6.8773 -3.6095,-14.233 -2.3407,-20.4594 1.3827,-6.785 1.519,-3.9169 9.1095,-3.9169 5.6383,0.0952 13.8894,0.1172 20.082,-1.1756 7.5232,0.5895 13.7128,3.3106 21.2841,3.8403 -3.7784,-0.9471 -2.8806,-0.8308 -6.012,-1.9681 0.0901,-0.4331 0.6175,-1.8582 0.7077,-2.2913 5.7367,0.3622 4.9553,0.4121 8.8068,0.5452 -7.313,-0.9026 -13.2393,-1.6612 -18.12,-3.4794 -7.231,-4.0665 -18.7592,-5.5628 -20.5425,-15.0467 -0.7894,-7.1506 0.6635,-10.081 5.8311,-14.465 6.4823,-5.4991 18.6984,-13.7508 22.2143,-15.2022 -11.5153,-0.8998 -46.7124,15.1095 -49.2815,28.1615 z"
   id="path7"
   style="fill:#2d4b9b;fill-opacity:1" />
  <path
   class="fil0"
   d="m 31.8833,193.92 c 0.6527,1.4142 0.9518,2.2032 2.1048,2.257 1.2301,0.0573 1.352,-0.622 1.4654,-1.5325 0.0878,-0.7054 0.0509,-1.7653 0.4381,-2.055 0.8866,-0.6632 3.7828,-1.6609 4.5812,-1.1619 1.0149,0.6343 0.8909,-0.6104 0.4042,-0.6737 -1.2215,-0.1591 -1.9198,-0.1418 -3.0736,0.009 -0.7739,0.1008 -1.8796,0.5442 -2.8059,1.1016 -1.3726,0.826 -2.4711,0.828 -3.8719,1.2476 -0.0095,0.1055 -0.125,0.785 -0.1768,1.036 0.4567,-0.2383 0.4449,-0.2481 0.9345,-0.2276 z"
   id="path9"
   style="fill:#2d4b9b;fill-opacity:1" />
 </g>
</svg>
